<svg xmlns="http://www.w3.org/2000/svg" width="3714.568" height="8406" viewBox="0 0 3714.568 8406"><g transform="translate(-13200.531 -5833)"><g transform="translate(13101 8766)" fill="#b75f24"><path d="M 789.7807006835938 5472.5 L 100.0313415527344 5472.5 L 100.0313415527344 0.5 L 789.7807006835938 0.5 L 789.7807006835938 5472.5 Z" stroke="none"/><path d="M 100.5313110351562 1 L 100.5313110351562 5472 L 789.2806396484375 5472 L 789.2806396484375 1 L 100.5313110351562 1 M 99.53131103515625 0 L 790.2806396484375 0 L 790.2806396484375 5473 L 99.53131103515625 5473 L 99.53131103515625 0 Z" stroke="none" fill="#707070"/></g><g transform="translate(14601 5833)" fill="#b75f24"><path d="M 789.7804565429688 8405.5 L 100.0315628051758 8405.5 L 100.0315628051758 0.5 L 789.7804565429688 0.5 L 789.7804565429688 8405.5 Z" stroke="none"/><path d="M 100.5315551757812 1 L 100.5315551757812 8405 L 789.2804565429688 8405 L 789.2804565429688 1 L 100.5315551757812 1 M 99.53155517578125 0 L 790.2804565429688 0 L 790.2804565429688 8406 L 99.53155517578125 8406 L 99.53155517578125 0 Z" stroke="none" fill="#707070"/></g><g transform="translate(16300 8766)" fill="#b75f24"><path d="M 614.5997924804688 5472.5 L -97.86687469482422 5472.5 L -97.86687469482422 0.5 L 614.5997924804688 0.5 L 614.5997924804688 5472.5 Z" stroke="none"/><path d="M -97.36688232421875 1 L -97.36688232421875 5472 L 614.0997924804688 5472 L 614.0997924804688 1 L -97.36688232421875 1 M -98.36688232421875 0 L 615.0997924804688 0 L 615.0997924804688 5473 L -98.36688232421875 5473 L -98.36688232421875 0 Z" stroke="none" fill="#707070"/></g></g></svg>